{
	"asset":{
		"generator":"Khronos glTF Blender I/O v4.1.63",
		"version":"2.0"
	},
	"extensionsUsed":[
		"KHR_materials_unlit"
	],
	"scene":0,
	"scenes":[
		{
			"name":"Scene",
			"nodes":[
				19
			]
		}
	],
	"nodes":[
		{
			"mesh":0,
			"name":"Model_material0_0"
		},
		{
			"mesh":1,
			"name":"Model_material0_0.001"
		},
		{
			"mesh":2,
			"name":"Model_material0_0.002"
		},
		{
			"mesh":3,
			"name":"Model_material0_0.003"
		},
		{
			"mesh":4,
			"name":"Model_material1_0"
		},
		{
			"mesh":5,
			"name":"Model_material1_0.001"
		},
		{
			"mesh":6,
			"name":"Model_material1_0.002"
		},
		{
			"mesh":7,
			"name":"Model_material1_0.003"
		},
		{
			"mesh":8,
			"name":"Model_material2_0"
		},
		{
			"mesh":9,
			"name":"Model_material2_0.001"
		},
		{
			"mesh":10,
			"name":"Model_material2_0.002"
		},
		{
			"mesh":11,
			"name":"Model_material2_0.003"
		},
		{
			"mesh":12,
			"name":"Model_material3_0"
		},
		{
			"mesh":13,
			"name":"Model_material3_0.001"
		},
		{
			"mesh":14,
			"name":"Model_material3_0.002"
		},
		{
			"mesh":15,
			"name":"Model_material3_0.003"
		},
		{
			"children":[
				0,
				1,
				2,
				3,
				4,
				5,
				6,
				7,
				8,
				9,
				10,
				11,
				12,
				13,
				14,
				15
			],
			"name":"Model",
			"rotation":[
				-0.70710688829422,
				0,
				0,
				0.7071066498756409
			],
			"scale":[
				100.00000762939453,
				100,
				100.00000762939453
			]
		},
		{
			"children":[
				16
			],
			"name":"RootNode"
		},
		{
			"children":[
				17
			],
			"name":"brick-arcs.fbx",
			"rotation":[
				0.7071068286895752,
				0,
				0,
				0.7071068286895752
			],
			"scale":[
				0.009999999776482582,
				0.010000000707805157,
				0.010000000707805157
			]
		},
		{
			"children":[
				18
			],
			"name":"Sketchfab_model",
			"rotation":[
				-0.4858296513557434,
				-0.01361561007797718,
				0.025831546634435654,
				0.8735655546188354
			]
		}
	],
	"materials":[
		{
			"doubleSided":true,
			"extensions":{
				"KHR_materials_unlit":{}
			},
			"name":"material0",
			"pbrMetallicRoughness":{
				"baseColorTexture":{
					"index":0
				},
				"metallicFactor":0,
				"roughnessFactor":0.9
			}
		},
		{
			"doubleSided":true,
			"extensions":{
				"KHR_materials_unlit":{}
			},
			"name":"material1",
			"pbrMetallicRoughness":{
				"baseColorTexture":{
					"index":1
				},
				"metallicFactor":0,
				"roughnessFactor":0.9
			}
		},
		{
			"doubleSided":true,
			"extensions":{
				"KHR_materials_unlit":{}
			},
			"name":"material2",
			"pbrMetallicRoughness":{
				"baseColorTexture":{
					"index":2
				},
				"metallicFactor":0,
				"roughnessFactor":0.9
			}
		},
		{
			"doubleSided":true,
			"extensions":{
				"KHR_materials_unlit":{}
			},
			"name":"material3",
			"pbrMetallicRoughness":{
				"baseColorTexture":{
					"index":3
				},
				"metallicFactor":0,
				"roughnessFactor":0.9
			}
		}
	],
	"meshes":[
		{
			"name":"Model_material0_0",
			"primitives":[
				{
					"attributes":{
						"POSITION":0,
						"NORMAL":1,
						"TEXCOORD_0":2
					},
					"indices":3,
					"material":0
				}
			]
		},
		{
			"name":"Model_material0_0.001",
			"primitives":[
				{
					"attributes":{
						"POSITION":4,
						"NORMAL":5,
						"TEXCOORD_0":6
					},
					"indices":7,
					"material":0
				}
			]
		},
		{
			"name":"Model_material0_0.002",
			"primitives":[
				{
					"attributes":{
						"POSITION":8,
						"NORMAL":9,
						"TEXCOORD_0":10
					},
					"indices":11,
					"material":0
				}
			]
		},
		{
			"name":"Model_material0_0.003",
			"primitives":[
				{
					"attributes":{
						"POSITION":12,
						"NORMAL":13,
						"TEXCOORD_0":14
					},
					"indices":15,
					"material":0
				}
			]
		},
		{
			"name":"Model_material1_0",
			"primitives":[
				{
					"attributes":{
						"POSITION":16,
						"NORMAL":17,
						"TEXCOORD_0":18
					},
					"indices":19,
					"material":1
				}
			]
		},
		{
			"name":"Model_material1_0.001",
			"primitives":[
				{
					"attributes":{
						"POSITION":20,
						"NORMAL":21,
						"TEXCOORD_0":22
					},
					"indices":23,
					"material":1
				}
			]
		},
		{
			"name":"Model_material1_0.002",
			"primitives":[
				{
					"attributes":{
						"POSITION":24,
						"NORMAL":25,
						"TEXCOORD_0":26
					},
					"indices":27,
					"material":1
				}
			]
		},
		{
			"name":"Model_material1_0.003",
			"primitives":[
				{
					"attributes":{
						"POSITION":28,
						"NORMAL":29,
						"TEXCOORD_0":30
					},
					"indices":31,
					"material":1
				}
			]
		},
		{
			"name":"Model_material2_0",
			"primitives":[
				{
					"attributes":{
						"POSITION":32,
						"NORMAL":33,
						"TEXCOORD_0":34
					},
					"indices":35,
					"material":2
				}
			]
		},
		{
			"name":"Model_material2_0.001",
			"primitives":[
				{
					"attributes":{
						"POSITION":36,
						"NORMAL":37,
						"TEXCOORD_0":38
					},
					"indices":39,
					"material":2
				}
			]
		},
		{
			"name":"Model_material2_0.002",
			"primitives":[
				{
					"attributes":{
						"POSITION":40,
						"NORMAL":41,
						"TEXCOORD_0":42
					},
					"indices":43,
					"material":2
				}
			]
		},
		{
			"name":"Model_material2_0.003",
			"primitives":[
				{
					"attributes":{
						"POSITION":44,
						"NORMAL":45,
						"TEXCOORD_0":46
					},
					"indices":47,
					"material":2
				}
			]
		},
		{
			"name":"Model_material3_0",
			"primitives":[
				{
					"attributes":{
						"POSITION":48,
						"NORMAL":49,
						"TEXCOORD_0":50
					},
					"indices":51,
					"material":3
				}
			]
		},
		{
			"name":"Model_material3_0.001",
			"primitives":[
				{
					"attributes":{
						"POSITION":52,
						"NORMAL":53,
						"TEXCOORD_0":54
					},
					"indices":55,
					"material":3
				}
			]
		},
		{
			"name":"Model_material3_0.002",
			"primitives":[
				{
					"attributes":{
						"POSITION":56,
						"NORMAL":57,
						"TEXCOORD_0":58
					},
					"indices":59,
					"material":3
				}
			]
		},
		{
			"name":"Model_material3_0.003",
			"primitives":[
				{
					"attributes":{
						"POSITION":60,
						"NORMAL":61,
						"TEXCOORD_0":62
					},
					"indices":63,
					"material":3
				}
			]
		}
	],
	"textures":[
		{
			"sampler":0,
			"source":0
		},
		{
			"sampler":0,
			"source":1
		},
		{
			"sampler":0,
			"source":2
		},
		{
			"sampler":0,
			"source":3
		}
	],
	"images":[
		{
			"mimeType":"image/jpeg",
			"name":"Image_1",
			"uri":"Image_1.jpg"
		},
		{
			"mimeType":"image/jpeg",
			"name":"Image_0",
			"uri":"Image_0.jpg"
		},
		{
			"mimeType":"image/jpeg",
			"name":"Image_3",
			"uri":"Image_3.jpg"
		},
		{
			"mimeType":"image/jpeg",
			"name":"Image_2",
			"uri":"Image_2.jpg"
		}
	],
	"accessors":[
		{
			"bufferView":0,
			"componentType":5126,
			"count":61650,
			"max":[
				13.831623077392578,
				4.653388500213623,
				3.796595335006714
			],
			"min":[
				-11.36606502532959,
				-5.679352283477783,
				-4.078672409057617
			],
			"type":"VEC3"
		},
		{
			"bufferView":1,
			"componentType":5126,
			"count":61650,
			"type":"VEC3"
		},
		{
			"bufferView":2,
			"componentType":5126,
			"count":61650,
			"type":"VEC2"
		},
		{
			"bufferView":3,
			"componentType":5123,
			"count":330978,
			"type":"SCALAR"
		},
		{
			"bufferView":4,
			"componentType":5126,
			"count":7460,
			"max":[
				8.93322467803955,
				4.70661735534668,
				2.635962963104248
			],
			"min":[
				-10.620010375976562,
				-4.632811069488525,
				-3.6029558181762695
			],
			"type":"VEC3"
		},
		{
			"bufferView":5,
			"componentType":5126,
			"count":7460,
			"type":"VEC3"
		},
		{
			"bufferView":6,
			"componentType":5126,
			"count":7460,
			"type":"VEC2"
		},
		{
			"bufferView":7,
			"componentType":5123,
			"count":44424,
			"type":"SCALAR"
		},
		{
			"bufferView":8,
			"componentType":5126,
			"count":59477,
			"max":[
				13.663475036621094,
				4.748950004577637,
				4.4628586769104
			],
			"min":[
				-11.266382217407227,
				-5.95357084274292,
				-3.8558664321899414
			],
			"type":"VEC3"
		},
		{
			"bufferView":9,
			"componentType":5126,
			"count":59477,
			"type":"VEC3"
		},
		{
			"bufferView":10,
			"componentType":5126,
			"count":59477,
			"type":"VEC2"
		},
		{
			"bufferView":11,
			"componentType":5123,
			"count":298644,
			"type":"SCALAR"
		},
		{
			"bufferView":12,
			"componentType":5126,
			"count":36619,
			"max":[
				13.861120223999023,
				4.734330177307129,
				4.545893669128418
			],
			"min":[
				-11.37051010131836,
				-5.932896137237549,
				-4.482292175292969
			],
			"type":"VEC3"
		},
		{
			"bufferView":13,
			"componentType":5126,
			"count":36619,
			"type":"VEC3"
		},
		{
			"bufferView":14,
			"componentType":5126,
			"count":36619,
			"type":"VEC2"
		},
		{
			"bufferView":15,
			"componentType":5123,
			"count":146781,
			"type":"SCALAR"
		},
		{
			"bufferView":16,
			"componentType":5126,
			"count":9696,
			"max":[
				13.402141571044922,
				4.6341094970703125,
				3.7357046604156494
			],
			"min":[
				-9.91235065460205,
				-5.8366312980651855,
				-3.903897523880005
			],
			"type":"VEC3"
		},
		{
			"bufferView":17,
			"componentType":5126,
			"count":9696,
			"type":"VEC3"
		},
		{
			"bufferView":18,
			"componentType":5126,
			"count":9696,
			"type":"VEC2"
		},
		{
			"bufferView":19,
			"componentType":5123,
			"count":57144,
			"type":"SCALAR"
		},
		{
			"bufferView":20,
			"componentType":5126,
			"count":61771,
			"max":[
				13.642538070678711,
				4.22447395324707,
				4.403581142425537
			],
			"min":[
				-10.744583129882812,
				-6.097038745880127,
				-3.2109622955322266
			],
			"type":"VEC3"
		},
		{
			"bufferView":21,
			"componentType":5126,
			"count":61771,
			"type":"VEC3"
		},
		{
			"bufferView":22,
			"componentType":5126,
			"count":61771,
			"type":"VEC2"
		},
		{
			"bufferView":23,
			"componentType":5123,
			"count":331425,
			"type":"SCALAR"
		},
		{
			"bufferView":24,
			"componentType":5126,
			"count":11778,
			"max":[
				13.610994338989258,
				4.700671195983887,
				4.40777587890625
			],
			"min":[
				-11.237902641296387,
				-6.112185001373291,
				-4.450270652770996
			],
			"type":"VEC3"
		},
		{
			"bufferView":25,
			"componentType":5126,
			"count":11778,
			"type":"VEC3"
		},
		{
			"bufferView":26,
			"componentType":5126,
			"count":11778,
			"type":"VEC2"
		},
		{
			"bufferView":27,
			"componentType":5123,
			"count":64896,
			"type":"SCALAR"
		},
		{
			"bufferView":28,
			"componentType":5126,
			"count":3865,
			"max":[
				5.216653347015381,
				4.592093467712402,
				-0.30742311477661133
			],
			"min":[
				0.8284010887145996,
				2.200962781906128,
				-3.441669464111328
			],
			"type":"VEC3"
		},
		{
			"bufferView":29,
			"componentType":5126,
			"count":3865,
			"type":"VEC3"
		},
		{
			"bufferView":30,
			"componentType":5126,
			"count":3865,
			"type":"VEC2"
		},
		{
			"bufferView":31,
			"componentType":5123,
			"count":12987,
			"type":"SCALAR"
		},
		{
			"bufferView":32,
			"componentType":5126,
			"count":58182,
			"max":[
				13.131170272827148,
				4.6534013748168945,
				3.8848323822021484
			],
			"min":[
				-9.821462631225586,
				-5.7733941078186035,
				-4.405954360961914
			],
			"type":"VEC3"
		},
		{
			"bufferView":33,
			"componentType":5126,
			"count":58182,
			"type":"VEC3"
		},
		{
			"bufferView":34,
			"componentType":5126,
			"count":58182,
			"type":"VEC2"
		},
		{
			"bufferView":35,
			"componentType":5123,
			"count":310020,
			"type":"SCALAR"
		},
		{
			"bufferView":36,
			"componentType":5126,
			"count":64000,
			"max":[
				13.390369415283203,
				4.72200870513916,
				4.545893669128418
			],
			"min":[
				-11.338111877441406,
				-4.730708599090576,
				-4.462348937988281
			],
			"type":"VEC3"
		},
		{
			"bufferView":37,
			"componentType":5126,
			"count":64000,
			"type":"VEC3"
		},
		{
			"bufferView":38,
			"componentType":5126,
			"count":64000,
			"type":"VEC2"
		},
		{
			"bufferView":39,
			"componentType":5123,
			"count":343452,
			"type":"SCALAR"
		},
		{
			"bufferView":40,
			"componentType":5126,
			"count":10526,
			"max":[
				13.401215553283691,
				4.604444980621338,
				4.400760650634766
			],
			"min":[
				-11.206753730773926,
				-6.009059429168701,
				-4.311065196990967
			],
			"type":"VEC3"
		},
		{
			"bufferView":41,
			"componentType":5126,
			"count":10526,
			"type":"VEC3"
		},
		{
			"bufferView":42,
			"componentType":5126,
			"count":10526,
			"type":"VEC2"
		},
		{
			"bufferView":43,
			"componentType":5123,
			"count":58620,
			"type":"SCALAR"
		},
		{
			"bufferView":44,
			"componentType":5126,
			"count":18022,
			"max":[
				13.36648178100586,
				4.687207221984863,
				3.5211806297302246
			],
			"min":[
				-8.881084442138672,
				-4.730708599090576,
				-4.205011367797852
			],
			"type":"VEC3"
		},
		{
			"bufferView":45,
			"componentType":5126,
			"count":18022,
			"type":"VEC3"
		},
		{
			"bufferView":46,
			"componentType":5126,
			"count":18022,
			"type":"VEC2"
		},
		{
			"bufferView":47,
			"componentType":5123,
			"count":70209,
			"type":"SCALAR"
		},
		{
			"bufferView":48,
			"componentType":5126,
			"count":60191,
			"max":[
				13.452465057373047,
				4.655023574829102,
				3.8080105781555176
			],
			"min":[
				-9.813972473144531,
				-5.070598125457764,
				-3.5837154388427734
			],
			"type":"VEC3"
		},
		{
			"bufferView":49,
			"componentType":5126,
			"count":60191,
			"type":"VEC3"
		},
		{
			"bufferView":50,
			"componentType":5126,
			"count":60191,
			"type":"VEC2"
		},
		{
			"bufferView":51,
			"componentType":5123,
			"count":320562,
			"type":"SCALAR"
		},
		{
			"bufferView":52,
			"componentType":5126,
			"count":61240,
			"max":[
				13.386690139770508,
				4.371160984039307,
				4.403847694396973
			],
			"min":[
				-11.050836563110352,
				-5.870855808258057,
				-3.462890625
			],
			"type":"VEC3"
		},
		{
			"bufferView":53,
			"componentType":5126,
			"count":61240,
			"type":"VEC3"
		},
		{
			"bufferView":54,
			"componentType":5126,
			"count":61240,
			"type":"VEC2"
		},
		{
			"bufferView":55,
			"componentType":5123,
			"count":325203,
			"type":"SCALAR"
		},
		{
			"bufferView":56,
			"componentType":5126,
			"count":11058,
			"max":[
				13.44400691986084,
				4.602118968963623,
				4.402812957763672
			],
			"min":[
				-11.032571792602539,
				-6.008147239685059,
				-4.3535685539245605
			],
			"type":"VEC3"
		},
		{
			"bufferView":57,
			"componentType":5126,
			"count":11058,
			"type":"VEC3"
		},
		{
			"bufferView":58,
			"componentType":5126,
			"count":11058,
			"type":"VEC2"
		},
		{
			"bufferView":59,
			"componentType":5123,
			"count":61896,
			"type":"SCALAR"
		},
		{
			"bufferView":60,
			"componentType":5126,
			"count":6284,
			"max":[
				5.285163402557373,
				4.657811164855957,
				2.62119197845459
			],
			"min":[
				0.8152742385864258,
				-5.065646648406982,
				-3.3099308013916016
			],
			"type":"VEC3"
		},
		{
			"bufferView":61,
			"componentType":5126,
			"count":6284,
			"type":"VEC3"
		},
		{
			"bufferView":62,
			"componentType":5126,
			"count":6284,
			"type":"VEC2"
		},
		{
			"bufferView":63,
			"componentType":5123,
			"count":22683,
			"type":"SCALAR"
		}
	],
	"bufferViews":[
		{
			"buffer":0,
			"byteLength":739800,
			"byteOffset":0,
			"target":34962
		},
		{
			"buffer":0,
			"byteLength":739800,
			"byteOffset":739800,
			"target":34962
		},
		{
			"buffer":0,
			"byteLength":493200,
			"byteOffset":1479600,
			"target":34962
		},
		{
			"buffer":0,
			"byteLength":661956,
			"byteOffset":1972800,
			"target":34963
		},
		{
			"buffer":0,
			"byteLength":89520,
			"byteOffset":2634756,
			"target":34962
		},
		{
			"buffer":0,
			"byteLength":89520,
			"byteOffset":2724276,
			"target":34962
		},
		{
			"buffer":0,
			"byteLength":59680,
			"byteOffset":2813796,
			"target":34962
		},
		{
			"buffer":0,
			"byteLength":88848,
			"byteOffset":2873476,
			"target":34963
		},
		{
			"buffer":0,
			"byteLength":713724,
			"byteOffset":2962324,
			"target":34962
		},
		{
			"buffer":0,
			"byteLength":713724,
			"byteOffset":3676048,
			"target":34962
		},
		{
			"buffer":0,
			"byteLength":475816,
			"byteOffset":4389772,
			"target":34962
		},
		{
			"buffer":0,
			"byteLength":597288,
			"byteOffset":4865588,
			"target":34963
		},
		{
			"buffer":0,
			"byteLength":439428,
			"byteOffset":5462876,
			"target":34962
		},
		{
			"buffer":0,
			"byteLength":439428,
			"byteOffset":5902304,
			"target":34962
		},
		{
			"buffer":0,
			"byteLength":292952,
			"byteOffset":6341732,
			"target":34962
		},
		{
			"buffer":0,
			"byteLength":293562,
			"byteOffset":6634684,
			"target":34963
		},
		{
			"buffer":0,
			"byteLength":116352,
			"byteOffset":6928248,
			"target":34962
		},
		{
			"buffer":0,
			"byteLength":116352,
			"byteOffset":7044600,
			"target":34962
		},
		{
			"buffer":0,
			"byteLength":77568,
			"byteOffset":7160952,
			"target":34962
		},
		{
			"buffer":0,
			"byteLength":114288,
			"byteOffset":7238520,
			"target":34963
		},
		{
			"buffer":0,
			"byteLength":741252,
			"byteOffset":7352808,
			"target":34962
		},
		{
			"buffer":0,
			"byteLength":741252,
			"byteOffset":8094060,
			"target":34962
		},
		{
			"buffer":0,
			"byteLength":494168,
			"byteOffset":8835312,
			"target":34962
		},
		{
			"buffer":0,
			"byteLength":662850,
			"byteOffset":9329480,
			"target":34963
		},
		{
			"buffer":0,
			"byteLength":141336,
			"byteOffset":9992332,
			"target":34962
		},
		{
			"buffer":0,
			"byteLength":141336,
			"byteOffset":10133668,
			"target":34962
		},
		{
			"buffer":0,
			"byteLength":94224,
			"byteOffset":10275004,
			"target":34962
		},
		{
			"buffer":0,
			"byteLength":129792,
			"byteOffset":10369228,
			"target":34963
		},
		{
			"buffer":0,
			"byteLength":46380,
			"byteOffset":10499020,
			"target":34962
		},
		{
			"buffer":0,
			"byteLength":46380,
			"byteOffset":10545400,
			"target":34962
		},
		{
			"buffer":0,
			"byteLength":30920,
			"byteOffset":10591780,
			"target":34962
		},
		{
			"buffer":0,
			"byteLength":25974,
			"byteOffset":10622700,
			"target":34963
		},
		{
			"buffer":0,
			"byteLength":698184,
			"byteOffset":10648676,
			"target":34962
		},
		{
			"buffer":0,
			"byteLength":698184,
			"byteOffset":11346860,
			"target":34962
		},
		{
			"buffer":0,
			"byteLength":465456,
			"byteOffset":12045044,
			"target":34962
		},
		{
			"buffer":0,
			"byteLength":620040,
			"byteOffset":12510500,
			"target":34963
		},
		{
			"buffer":0,
			"byteLength":768000,
			"byteOffset":13130540,
			"target":34962
		},
		{
			"buffer":0,
			"byteLength":768000,
			"byteOffset":13898540,
			"target":34962
		},
		{
			"buffer":0,
			"byteLength":512000,
			"byteOffset":14666540,
			"target":34962
		},
		{
			"buffer":0,
			"byteLength":686904,
			"byteOffset":15178540,
			"target":34963
		},
		{
			"buffer":0,
			"byteLength":126312,
			"byteOffset":15865444,
			"target":34962
		},
		{
			"buffer":0,
			"byteLength":126312,
			"byteOffset":15991756,
			"target":34962
		},
		{
			"buffer":0,
			"byteLength":84208,
			"byteOffset":16118068,
			"target":34962
		},
		{
			"buffer":0,
			"byteLength":117240,
			"byteOffset":16202276,
			"target":34963
		},
		{
			"buffer":0,
			"byteLength":216264,
			"byteOffset":16319516,
			"target":34962
		},
		{
			"buffer":0,
			"byteLength":216264,
			"byteOffset":16535780,
			"target":34962
		},
		{
			"buffer":0,
			"byteLength":144176,
			"byteOffset":16752044,
			"target":34962
		},
		{
			"buffer":0,
			"byteLength":140418,
			"byteOffset":16896220,
			"target":34963
		},
		{
			"buffer":0,
			"byteLength":722292,
			"byteOffset":17036640,
			"target":34962
		},
		{
			"buffer":0,
			"byteLength":722292,
			"byteOffset":17758932,
			"target":34962
		},
		{
			"buffer":0,
			"byteLength":481528,
			"byteOffset":18481224,
			"target":34962
		},
		{
			"buffer":0,
			"byteLength":641124,
			"byteOffset":18962752,
			"target":34963
		},
		{
			"buffer":0,
			"byteLength":734880,
			"byteOffset":19603876,
			"target":34962
		},
		{
			"buffer":0,
			"byteLength":734880,
			"byteOffset":20338756,
			"target":34962
		},
		{
			"buffer":0,
			"byteLength":489920,
			"byteOffset":21073636,
			"target":34962
		},
		{
			"buffer":0,
			"byteLength":650406,
			"byteOffset":21563556,
			"target":34963
		},
		{
			"buffer":0,
			"byteLength":132696,
			"byteOffset":22213964,
			"target":34962
		},
		{
			"buffer":0,
			"byteLength":132696,
			"byteOffset":22346660,
			"target":34962
		},
		{
			"buffer":0,
			"byteLength":88464,
			"byteOffset":22479356,
			"target":34962
		},
		{
			"buffer":0,
			"byteLength":123792,
			"byteOffset":22567820,
			"target":34963
		},
		{
			"buffer":0,
			"byteLength":75408,
			"byteOffset":22691612,
			"target":34962
		},
		{
			"buffer":0,
			"byteLength":75408,
			"byteOffset":22767020,
			"target":34962
		},
		{
			"buffer":0,
			"byteLength":50272,
			"byteOffset":22842428,
			"target":34962
		},
		{
			"buffer":0,
			"byteLength":45366,
			"byteOffset":22892700,
			"target":34963
		}
	],
	"samplers":[
		{
			"magFilter":9729,
			"minFilter":9987
		}
	],
	"buffers":[
		{
			"byteLength":22938068,
			"uri":"untitled.bin"
		}
	]
}
