{
	"asset":{
		"generator":"Khronos glTF Blender I/O v4.1.63",
		"version":"2.0"
	},
	"scene":0,
	"scenes":[
		{
			"name":"Scene",
			"nodes":[
				6
			]
		}
	],
	"nodes":[
		{
			"mesh":0,
			"name":"Object_2"
		},
		{
			"mesh":1,
			"name":"Object_3"
		},
		{
			"mesh":2,
			"name":"Object_4"
		},
		{
			"mesh":3,
			"name":"Object_5"
		},
		{
			"mesh":4,
			"name":"Object_6"
		},
		{
			"children":[
				0,
				1,
				2,
				3,
				4
			],
			"name":"nile.obj.cleaner.materialmerger.gles"
		},
		{
			"children":[
				5
			],
			"name":"Sketchfab_model",
			"rotation":[
				0,
				0,
				1,
				1.1102230246251565e-16
			],
			"scale":[
				0.09994091838598251,
				0.09994091838598251,
				0.09994091838598251
			],
			"translation":[
				-0.04606926441192627,
				-0.010038934648036957,
				-0.10822772979736328
			]
		}
	],
	"materials":[
		{
			"doubleSided":true,
			"name":"roman_statue_low-300k-tex.001",
			"normalTexture":{
				"index":0
			},
			"occlusionTexture":{
				"index":1
			},
			"pbrMetallicRoughness":{
				"baseColorTexture":{
					"index":2
				},
				"metallicRoughnessTexture":{
					"index":1
				}
			}
		}
	],
	"meshes":[
		{
			"name":"Object_0.004",
			"primitives":[
				{
					"attributes":{
						"POSITION":0,
						"NORMAL":1,
						"TEXCOORD_0":2
					},
					"indices":3,
					"material":0
				}
			]
		},
		{
			"name":"Object_1.001",
			"primitives":[
				{
					"attributes":{
						"POSITION":4,
						"NORMAL":5,
						"TEXCOORD_0":6
					},
					"indices":7,
					"material":0
				}
			]
		},
		{
			"name":"Object_2.001",
			"primitives":[
				{
					"attributes":{
						"POSITION":8,
						"NORMAL":9,
						"TEXCOORD_0":10
					},
					"indices":11,
					"material":0
				}
			]
		},
		{
			"name":"Object_3.001",
			"primitives":[
				{
					"attributes":{
						"POSITION":12,
						"NORMAL":13,
						"TEXCOORD_0":14
					},
					"indices":15,
					"material":0
				}
			]
		},
		{
			"name":"Object_4.001",
			"primitives":[
				{
					"attributes":{
						"POSITION":16,
						"NORMAL":17,
						"TEXCOORD_0":18
					},
					"indices":19,
					"material":0
				}
			]
		}
	],
	"textures":[
		{
			"sampler":0,
			"source":0
		},
		{
			"sampler":0,
			"source":1
		},
		{
			"sampler":0,
			"source":2
		}
	],
	"images":[
		{
			"mimeType":"image/png",
			"name":"Image_2",
			"uri":"Image_2.png"
		},
		{
			"mimeType":"image/png",
			"name":"Image_1",
			"uri":"Image_1.png"
		},
		{
			"mimeType":"image/png",
			"name":"Image_0",
			"uri":"Image_0.png"
		}
	],
	"accessors":[
		{
			"bufferView":0,
			"componentType":5126,
			"count":65834,
			"max":[
				19.181758880615234,
				-0.0004052065487485379,
				10.316121101379395
			],
			"min":[
				-20.329557418823242,
				-19.84124183654785,
				-9.069917678833008
			],
			"type":"VEC3"
		},
		{
			"bufferView":1,
			"componentType":5126,
			"count":65834,
			"type":"VEC3"
		},
		{
			"bufferView":2,
			"componentType":5126,
			"count":65834,
			"type":"VEC2"
		},
		{
			"bufferView":3,
			"componentType":5125,
			"count":274542,
			"type":"SCALAR"
		},
		{
			"bufferView":4,
			"componentType":5126,
			"count":65845,
			"max":[
				19.112350463867188,
				-0.00040520066977478564,
				10.310408592224121
			],
			"min":[
				-20.317909240722656,
				-20.600543975830078,
				-9.067754745483398
			],
			"type":"VEC3"
		},
		{
			"bufferView":5,
			"componentType":5126,
			"count":65845,
			"type":"VEC3"
		},
		{
			"bufferView":6,
			"componentType":5126,
			"count":65845,
			"type":"VEC2"
		},
		{
			"bufferView":7,
			"componentType":5125,
			"count":239331,
			"type":"SCALAR"
		},
		{
			"bufferView":8,
			"componentType":5126,
			"count":65862,
			"max":[
				19.181758880615234,
				-0.00040520066977478564,
				10.3004150390625
			],
			"min":[
				-20.28188133239746,
				-20.457839965820312,
				-9.049849510192871
			],
			"type":"VEC3"
		},
		{
			"bufferView":9,
			"componentType":5126,
			"count":65862,
			"type":"VEC3"
		},
		{
			"bufferView":10,
			"componentType":5126,
			"count":65862,
			"type":"VEC2"
		},
		{
			"bufferView":11,
			"componentType":5125,
			"count":198105,
			"type":"SCALAR"
		},
		{
			"bufferView":12,
			"componentType":5126,
			"count":65974,
			"max":[
				19.154932022094727,
				-0.0004052390868309885,
				10.305254936218262
			],
			"min":[
				-20.310876846313477,
				-20.639183044433594,
				-9.049120903015137
			],
			"type":"VEC3"
		},
		{
			"bufferView":13,
			"componentType":5126,
			"count":65974,
			"type":"VEC3"
		},
		{
			"bufferView":14,
			"componentType":5126,
			"count":65974,
			"type":"VEC2"
		},
		{
			"bufferView":15,
			"componentType":5125,
			"count":158787,
			"type":"SCALAR"
		},
		{
			"bufferView":16,
			"componentType":5126,
			"count":25854,
			"max":[
				19.115102767944336,
				-0.0004055352765135467,
				10.297785758972168
			],
			"min":[
				-20.271997451782227,
				-20.32550811767578,
				-8.905010223388672
			],
			"type":"VEC3"
		},
		{
			"bufferView":17,
			"componentType":5126,
			"count":25854,
			"type":"VEC3"
		},
		{
			"bufferView":18,
			"componentType":5126,
			"count":25854,
			"type":"VEC2"
		},
		{
			"bufferView":19,
			"componentType":5123,
			"count":30699,
			"type":"SCALAR"
		}
	],
	"bufferViews":[
		{
			"buffer":0,
			"byteLength":790008,
			"byteOffset":0,
			"target":34962
		},
		{
			"buffer":0,
			"byteLength":790008,
			"byteOffset":790008,
			"target":34962
		},
		{
			"buffer":0,
			"byteLength":526672,
			"byteOffset":1580016,
			"target":34962
		},
		{
			"buffer":0,
			"byteLength":1098168,
			"byteOffset":2106688,
			"target":34963
		},
		{
			"buffer":0,
			"byteLength":790140,
			"byteOffset":3204856,
			"target":34962
		},
		{
			"buffer":0,
			"byteLength":790140,
			"byteOffset":3994996,
			"target":34962
		},
		{
			"buffer":0,
			"byteLength":526760,
			"byteOffset":4785136,
			"target":34962
		},
		{
			"buffer":0,
			"byteLength":957324,
			"byteOffset":5311896,
			"target":34963
		},
		{
			"buffer":0,
			"byteLength":790344,
			"byteOffset":6269220,
			"target":34962
		},
		{
			"buffer":0,
			"byteLength":790344,
			"byteOffset":7059564,
			"target":34962
		},
		{
			"buffer":0,
			"byteLength":526896,
			"byteOffset":7849908,
			"target":34962
		},
		{
			"buffer":0,
			"byteLength":792420,
			"byteOffset":8376804,
			"target":34963
		},
		{
			"buffer":0,
			"byteLength":791688,
			"byteOffset":9169224,
			"target":34962
		},
		{
			"buffer":0,
			"byteLength":791688,
			"byteOffset":9960912,
			"target":34962
		},
		{
			"buffer":0,
			"byteLength":527792,
			"byteOffset":10752600,
			"target":34962
		},
		{
			"buffer":0,
			"byteLength":635148,
			"byteOffset":11280392,
			"target":34963
		},
		{
			"buffer":0,
			"byteLength":310248,
			"byteOffset":11915540,
			"target":34962
		},
		{
			"buffer":0,
			"byteLength":310248,
			"byteOffset":12225788,
			"target":34962
		},
		{
			"buffer":0,
			"byteLength":206832,
			"byteOffset":12536036,
			"target":34962
		},
		{
			"buffer":0,
			"byteLength":61398,
			"byteOffset":12742868,
			"target":34963
		}
	],
	"samplers":[
		{
			"magFilter":9729,
			"minFilter":9987
		}
	],
	"buffers":[
		{
			"byteLength":12804268,
			"uri":"Lao.bin"
		}
	]
}
